<svg width="28" height="27" viewBox="0 0 28 27" fill="none" xmlns="http://www.w3.org/2000/svg">
<path fill-rule="evenodd" clip-rule="evenodd" d="M13.9987 0C6.26882 0 0 6.19706 0 13.8421C0 19.9576 4.01105 25.1452 9.57427 26.9755C10.2747 27.1029 10.53 26.6755 10.53 26.3084C10.53 25.9796 10.5179 25.1095 10.5111 23.9547C6.6169 24.7908 5.79527 22.0989 5.79527 22.0989C5.15842 20.4997 4.24053 20.074 4.24053 20.074C2.9694 19.2158 4.33679 19.2327 4.33679 19.2327C5.74199 19.3305 6.48111 20.6594 6.48111 20.6594C7.72989 22.7744 9.75819 22.1635 10.5558 21.8091C10.683 20.9152 11.0448 20.3051 11.4444 19.9593C8.3358 19.61 5.06732 18.4221 5.06732 13.1181C5.06732 11.6073 5.61307 10.3709 6.50862 9.40394C6.36423 9.05385 5.8838 7.64585 6.64613 5.74076C6.64613 5.74076 7.82099 5.36859 10.4956 7.15981C11.612 6.85221 12.8101 6.69925 14.0004 6.6933C15.1899 6.69925 16.3871 6.85221 17.5053 7.15981C20.1782 5.36859 21.3513 5.74076 21.3513 5.74076C22.1154 7.64585 21.6349 9.05385 21.4914 9.40394C22.3887 10.3709 22.9301 11.6073 22.9301 13.1181C22.9301 18.4357 19.6565 19.6058 16.5384 19.9482C17.0403 20.3756 17.4881 21.2203 17.4881 22.511C17.4881 24.3617 17.4709 25.8547 17.4709 26.3084C17.4709 26.6789 17.7236 27.1097 18.4335 26.9746C23.9924 25.1401 28 19.9559 28 13.8421C28 6.19706 21.7312 0 13.9987 0Z" fill="#FFFCF2"/>
</svg>
