<svg width="33" height="27" viewBox="0 0 33 27" fill="none" xmlns="http://www.w3.org/2000/svg">
<path d="M30.035 26.8804C29.5159 26.7109 29.1082 26.3497 28.8786 25.856C28.7698 25.622 28.748 25.5038 28.7483 25.15C28.7489 24.5828 28.9109 24.2125 29.3265 23.8276C29.6982 23.4835 30.0391 23.35 30.5457 23.35C31.2655 23.35 31.8541 23.7243 32.182 24.3904C32.3275 24.6859 32.3453 24.7675 32.3417 25.1239C32.3317 26.139 31.6197 26.8915 30.63 26.9331C30.3956 26.9429 30.1636 26.9224 30.035 26.8804V26.8804ZM31.2331 26.6123C31.5651 26.4669 31.8782 26.1541 32.0374 25.8088C32.1226 25.6241 32.1452 25.4805 32.145 25.125C32.1448 24.7351 32.1271 24.6413 32.0122 24.423C31.8503 24.1151 31.4932 23.7773 31.1795 23.6352C30.8265 23.4752 30.2368 23.485 29.8707 23.657C29.5403 23.8123 29.2578 24.0862 29.0785 24.425C28.9623 24.6446 28.9462 24.7328 28.9461 25.15C28.946 25.5494 28.9642 25.6592 29.0605 25.8398C29.5024 26.6684 30.3871 26.9829 31.2331 26.6123V26.6123ZM29.9207 25.15V24.2H30.4419C30.9263 24.2 30.9736 24.2089 31.1132 24.3263C31.4172 24.5822 31.344 25.0302 30.9723 25.1887L30.7698 25.275L31.0461 25.6875C31.3158 26.09 31.3194 26.1 31.1955 26.1C31.0909 26.1 31.02 26.0248 30.7943 25.675C30.5363 25.2751 30.5098 25.25 30.3454 25.25H30.1707V25.675C30.1707 26.095 30.1692 26.1 30.0457 26.1H29.9207V25.15ZM30.9096 24.9722C30.9922 24.9143 31.0207 24.8442 31.0207 24.6989C31.0207 24.4505 30.9325 24.4 30.499 24.4H30.1707V24.725V25.05H30.4846C30.6878 25.05 30.8377 25.0225 30.9096 24.9722ZM2.08341 26.6772C1.80162 26.5889 1.41101 26.3341 1.21474 26.1105C1.12743 26.0111 0.986183 25.7824 0.90086 25.6024L0.745728 25.275V13.3974V1.51981L0.934346 1.13817C1.14898 0.703886 1.42591 0.428492 1.86467 0.213022L2.14573 0.0749969H14.0957H26.0457L26.3268 0.213022C26.7655 0.428492 27.0425 0.703886 27.2571 1.13817L27.4457 1.51981V13.4V25.2802L27.2571 25.6618C27.0425 26.0961 26.7655 26.3715 26.3268 26.587L26.0457 26.725L14.1707 26.7344C4.40599 26.7421 2.258 26.7319 2.08341 26.6772V26.6772ZM8.67073 16.45V10.05H6.67073H4.67073V16.45V22.85H6.67073H8.67073V16.45ZM15.134 19.1375C15.1547 15.0105 15.1502 15.0688 15.4955 14.3671C15.7214 13.9082 16.0894 13.562 16.5288 13.3953C16.8022 13.2915 16.9317 13.275 17.4719 13.275C18.0805 13.275 18.1075 13.2797 18.4365 13.4417C18.9922 13.7153 19.294 14.1947 19.4492 15.05C19.5025 15.3437 19.5176 16.2295 19.519 19.1375L19.5208 22.85H21.5237H23.5267L23.5067 18.4625C23.4873 14.2214 23.4831 14.0561 23.3788 13.5076C23.1423 12.2637 22.8076 11.5407 22.1708 10.8975C21.4663 10.186 20.6625 9.8581 19.3476 9.74584C17.9954 9.63039 17.0258 9.8712 16.0958 10.5534C15.7749 10.7888 15.3211 11.2671 15.1245 11.5772L14.9708 11.8196V10.9348V10.05H13.0458H11.1208V16.45V22.85H13.1181H15.1155L15.134 19.1375ZM7.36618 8.20527C9.01437 7.6923 9.52163 5.60154 8.29541 4.37532C7.8337 3.9136 7.32384 3.70244 6.67073 3.70244C5.36697 3.70244 4.37073 4.69562 4.37073 5.99538C4.37073 7.02487 4.99701 7.89544 5.95882 8.2029C6.34842 8.32745 6.97026 8.32849 7.36618 8.20527V8.20527Z" fill="#FFFCF2"/>
</svg>
