<svg width="136" height="33" viewBox="0 0 136 33" fill="none" xmlns="http://www.w3.org/2000/svg">
<path d="M7.47467 11.8097C7.27321 11.4068 6.93771 10.9591 6.60169 10.6907C6.31096 10.4669 5.77375 10.1759 4.92342 10.1759C3.44634 10.1759 2.41694 11.0936 2.41694 12.4812C2.41694 13.0629 2.57337 13.3984 2.97628 13.7789C3.42396 14.2266 3.9833 14.4728 4.54289 14.7191L5.9752 15.3455C6.84792 15.7261 7.65374 16.129 8.28023 16.7555C9.04128 17.5165 9.35466 18.3892 9.35466 19.4634C9.35466 22.2161 7.31798 24.0513 4.63243 24.0513C3.6478 24.0513 2.41694 23.8499 1.38728 22.8429C0.648873 22.1266 0.201455 21.0972 0 20.2021L1.61112 19.7544C1.72304 20.5376 2.08118 21.2091 2.50648 21.6568C3.15535 22.3056 3.89402 22.4847 4.65481 22.4847C6.69149 22.4847 7.65374 21.03 7.65374 19.5306C7.65374 18.859 7.45228 18.2773 6.91533 17.7851C6.49003 17.3822 5.90805 17.1136 5.12488 16.7555L3.7821 16.129C3.20012 15.8604 2.46171 15.547 1.79019 14.8981C1.14132 14.2714 0.760793 13.5775 0.760793 12.4588C0.760793 10.1535 2.52886 8.60929 4.9458 8.60929C5.86328 8.60929 6.60169 8.78837 7.34036 9.28081C7.94473 9.68372 8.4593 10.2878 8.79506 10.9367L7.47467 11.8097Z" fill="#FFFCF2"/>
<path d="M24.6177 10.4221H18.5305V14.8534H24.4389V16.4197H18.5305V22.2161H24.6177V23.7827H16.8744V8.85551H24.6177V10.4221Z" fill="#FFFCF2"/>
<path d="M56.062 18.0088L53.5555 12.0334L51.004 18.0088H56.062ZM56.7109 19.5754H50.3552L48.5647 23.7828H46.7297L53.6003 8.13934L60.2918 23.7828H58.4566L56.7109 19.5754Z" fill="#FFFCF2"/>
<path d="M73.2953 11.8097C73.0941 11.4068 72.7583 10.9591 72.4223 10.6907C72.1316 10.4669 71.5944 10.1759 70.744 10.1759C69.2669 10.1759 68.2373 11.0936 68.2373 12.4812C68.2373 13.0629 68.3942 13.3984 68.7971 13.7789C69.2446 14.2266 69.8042 14.4728 70.3635 14.7191L71.7958 15.3455C72.6688 15.7261 73.4741 16.129 74.1011 16.7555C74.8619 17.5165 75.1753 18.3892 75.1753 19.4634C75.1753 22.2161 73.1386 24.0513 70.453 24.0513C69.4684 24.0513 68.2373 23.8499 67.2079 22.8429C66.4695 22.1266 66.0221 21.0972 65.8203 20.2021L67.432 19.7544C67.5436 20.5376 67.9018 21.2091 68.3271 21.6568C68.976 22.3056 69.7144 22.4847 70.4754 22.4847C72.5118 22.4847 73.4741 21.03 73.4741 19.5306C73.4741 18.859 73.2729 18.2773 72.7359 17.7851C72.3106 17.3822 71.7287 17.1136 70.9455 16.7555L69.6024 16.129C69.0207 15.8604 68.2823 15.547 67.6108 14.8981C66.9619 14.2714 66.5814 13.5775 66.5814 12.4588C66.5814 10.1535 68.3495 8.60929 70.7664 8.60929C71.6841 8.60929 72.4223 8.78837 73.161 9.28081C73.7653 9.68372 74.2799 10.2878 74.6157 10.9367L73.2953 11.8097Z" fill="#FFFCF2"/>
<path d="M85.4256 10.4221V23.7827H83.7695V10.4221H80.1441V8.85551H89.051V10.4221H85.4256Z" fill="#FFFCF2"/>
<path d="M115.416 18.0088L112.909 12.0334L110.358 18.0088H115.416ZM116.064 19.5754H109.709L107.918 23.7828H106.083L112.954 8.13934L119.645 23.7828H117.81L116.064 19.5754Z" fill="#FFFCF2"/>
<path d="M125.444 23.7827V8.22901L134.415 19.9053V8.8555H136V24.4542L127.029 12.7779V23.7827H125.444Z" fill="#FFFCF2"/>
<path d="M38.9613 16.2114C40.5594 15.5191 41.1633 13.9418 41.1633 12.6691C41.1633 11.2375 40.4475 10.0715 39.6407 9.44682C38.4538 8.50461 37.0899 8.46036 36.0592 8.46036H32.6053V10.0272H35.9031C36.8661 10.0272 37.8057 10.0949 38.5215 10.6545C39.1045 11.0788 39.5079 11.818 39.5079 12.7133C39.5079 13.9002 38.813 14.5925 38.2299 14.9075C37.6704 15.2198 36.8895 15.3551 35.7026 15.3551H32.6053V17.0678H35.7026C36.8895 17.0678 37.6704 17.2031 38.2299 17.5154C38.813 17.8304 39.5079 18.5227 39.5079 19.7096C39.5079 20.6049 39.1045 21.3441 38.5215 21.7684C37.8057 22.328 36.8661 22.3957 35.9031 22.3957H32.6053V23.9625H36.0592C37.0899 23.9625 38.4538 23.9183 39.6407 22.9761C40.4475 22.3514 41.1633 21.1854 41.1633 19.7538C41.1633 18.4811 40.5594 16.9038 38.9613 16.2114Z" fill="#FFFCF2"/>
<path d="M32.6054 32.4228H34.2608V23.9625H32.6054V32.4228Z" fill="#FFFCF2"/>
<path d="M32.6054 8.46033H34.2608V-1.23978e-05H32.6054V8.46033Z" fill="#FFFCF2"/>
<path d="M96.7762 32.6831H98.4316V24.2228H96.7762V32.6831Z" fill="#FFFCF2"/>
<path d="M96.7843 8.73956H98.4396V0.279223H96.7843V8.73956Z" fill="#FFFCF2"/>
<path d="M100.471 8.73956H94.7366V24.2227H100.471V8.73956ZM98.9094 22.661H96.2983V10.3012H98.9094V22.661Z" fill="#FFFCF2"/>
</svg>
